# xmcd
#
# Track frame offsets: 
#        150
#        19215
#        31478
#        43025
#        60178
#        74410
#        87715
#        105883
#        120373
#        133993
#        150090
#        166190
#
# Disc length: 2378 seconds
#
# Revision: 5
# Processed by: cddbd v1.5.2PL0 Copyright (c) Steve Scherf et al.
# Submitted via: ExactAudioCopy v1.0b3
#
DISCID=9009480c
DTITLE=Junior Brown - Mixed Bag
DYEAR=2001
DGENRE=Country
TTITLE0=Guitar Man
TTITLE1=Ain't Gonna Work Today
TTITLE2=Riverboat Shuffle
TTITLE3=Our First Bluebonnet Spring
TTITLE4=Cagey Bea
TTITLE5=Runnin' With The Wind
TTITLE6=Catfish And Collard Greens
TTITLE7=Little Town Square
TTITLE8=Hard Livin' Hard
TTITLE9=Kansas City Blues
TTITLE10=Grow Up America
TTITLE11=The Chase
EXTD=YEAR: 2001
EXTT0=
EXTT1=
EXTT2=
EXTT3=
EXTT4=
EXTT5=
EXTT6=
EXTT7=
EXTT8=
EXTT9=
EXTT10=
EXTT11=
PLAYORDER=
